<?xml version="1.0" standalone="no"?>
<!DOCTYPE svg PUBLIC "-//W3C//DTD SVG 20010904//EN"
 "http://www.w3.org/TR/2001/REC-SVG-20010904/DTD/svg10.dtd">
<svg version="1.0" xmlns="http://www.w3.org/2000/svg"
 width="260.000000pt" height="260.000000pt" viewBox="0 0 260.000000 260.000000"
 preserveAspectRatio="xMidYMid meet">
<metadata>
Created by potrace 1.11, written by Peter Selinger 2001-2013
</metadata>
<g transform="translate(0.000000,260.000000) scale(0.100000,-0.100000)"
fill="#000000" stroke="none">
<path d="M490 1685 l0 -155 -80 0 -80 0 0 -155 0 -155 80 0 80 0 0 -75 0 -75
325 0 326 0 -3 153 -3 152 -82 3 -83 3 0 74 0 75 -80 0 -80 0 0 75 0 75 -80 0
-80 0 0 80 0 80 -80 0 -80 0 0 -155z"/>
<path d="M1950 1760 l0 -80 -80 0 -80 0 0 -75 0 -75 -80 0 -80 0 0 -75 0 -74
-82 -3 -83 -3 -3 -152 -3 -153 326 0 325 0 0 75 0 75 80 0 80 0 0 155 0 155
-80 0 -80 0 0 155 0 155 -80 0 -80 0 0 -80z"/>
<path d="M0 765 l0 -155 80 0 80 0 0 -75 0 -75 85 0 85 0 0 -75 0 -75 80 0 80
0 0 -80 0 -80 80 0 80 0 0 -75 0 -75 650 0 650 0 0 75 0 75 80 0 80 0 0 80 0
80 80 0 80 0 0 75 0 75 165 0 165 0 0 230 0 230 -80 0 -80 0 0 -80 0 -80 -165
0 -165 0 0 -75 0 -75 -730 0 -730 0 0 75 0 75 -165 0 -165 0 0 80 0 80 -160 0
-160 0 0 -155z m1950 -385 l0 -80 -80 0 -80 0 0 -75 0 -75 -490 0 -490 0 0 75
0 75 -80 0 -80 0 0 80 0 80 650 0 650 0 0 -80z"/>
</g>
</svg>
